<!-- Generator: Adobe Illustrator 22.1.0, SVG Export Plug-In  -->
<svg version="1.1"
	 xmlns="http://www.w3.org/2000/svg" xmlns:xlink="http://www.w3.org/1999/xlink" xmlns:a="http://ns.adobe.com/AdobeSVGViewerExtensions/3.0/"
	 x="0px" y="0px" width="486.537px" height="161.462px" viewBox="0 0 486.537 161.462"
	 style="enable-background:new 0 0 486.537 161.462;" xml:space="preserve">
<style type="text/css">
	.st0{fill:none;stroke:#166734;stroke-miterlimit:10;}
	.st1{fill:#166734;}
	.st2{fill:none;stroke:#243E90;stroke-miterlimit:10;}
	.st3{fill:#243E90;}
	.st4{fill:none;stroke:#EF3C23;stroke-miterlimit:10;}
	.st5{fill:#EF3C23;}
	.st6{fill:none;stroke:#76CEDE;stroke-miterlimit:10;}
	.st7{fill:#76CEDE;}
	.st8{fill:#666766;}
	.st9{fill:none;stroke:#76CEDE;stroke-width:2;stroke-miterlimit:10;}
	.st10{fill:none;stroke:#243E90;stroke-width:2;stroke-miterlimit:10;}
	.st11{fill:none;stroke:#166734;stroke-width:2;stroke-miterlimit:10;}
	.st12{fill:none;stroke:url(#SVGID_1_);stroke-width:4;stroke-miterlimit:10;}
	.st13{fill:none;stroke:url(#SVGID_2_);stroke-width:4;stroke-miterlimit:10;}
	.st14{fill:none;stroke:url(#SVGID_3_);stroke-width:4;stroke-miterlimit:10;}
	.st15{fill:none;stroke:url(#SVGID_4_);stroke-width:4;stroke-miterlimit:10;}
	.st16{fill:none;stroke:#666766;stroke-width:2;stroke-miterlimit:10;}
	.st17{fill:none;stroke:#EF3C23;stroke-width:2;stroke-miterlimit:10;}
	.st18{font-family:'MyriadPro-Regular';}
	.st19{font-size:12px;}
	.st20{font-size:12.0769px;}
	.st21{fill:none;stroke:url(#SVGID_5_);stroke-width:4;stroke-miterlimit:10;}
	.st22{fill:none;stroke:url(#SVGID_6_);stroke-width:4;stroke-miterlimit:10;}
	.st23{fill:none;stroke:url(#SVGID_7_);stroke-width:4;stroke-miterlimit:10;}
	.st24{fill:none;stroke:url(#SVGID_8_);stroke-width:4;stroke-miterlimit:10;}
</style>
<defs>
</defs>
<g>
	<circle class="st0" cx="25.705" cy="135.207" r="22.5"/>
	<g>
		<path class="st1" d="M37.505,122.691c1.498,1.605,2.929,3.135,4.446,4.759c-7.249,6.76-14.469,13.49-21.743,20.274
			c-3.589-3.848-7.132-7.646-10.749-11.526c1.552-1.451,3.073-2.873,4.683-4.378c2.115,2.261,4.203,4.494,6.32,6.759
			C26.15,133.275,31.783,128.024,37.505,122.691z"/>
	</g>
</g>
<g>
	<circle class="st2" cx="463.537" cy="138.462" r="22.5"/>
	<g>
		<path class="st3" d="M475.338,125.945c1.498,1.605,2.929,3.135,4.446,4.759c-7.249,6.76-14.469,13.49-21.743,20.274
			c-3.589-3.848-7.132-7.646-10.749-11.526c1.552-1.451,3.073-2.873,4.683-4.378c2.115,2.261,4.203,4.494,6.32,6.759
			C463.983,136.529,469.616,131.279,475.338,125.945z"/>
	</g>
</g>
<g>
	<g>
		<circle class="st4" cx="133.705" cy="137.874" r="22.5"/>
	</g>
	<g>
		<path class="st5" d="M145.506,125.357c1.499,1.605,2.927,3.135,4.444,4.759c-7.249,6.76-14.467,13.49-21.744,20.274
			c-3.589-3.848-7.13-7.646-10.747-11.526c1.552-1.451,3.073-2.873,4.683-4.378c2.115,2.261,4.201,4.494,6.32,6.759
			C134.151,135.941,139.782,130.69,145.506,125.357z"/>
	</g>
</g>
<g>
	<circle class="st6" cx="242.458" cy="138.04" r="22.5"/>
	<g>
		<path class="st7" d="M254.259,125.524c1.499,1.605,2.927,3.135,4.444,4.759c-7.249,6.76-14.467,13.49-21.744,20.274
			c-3.589-3.848-7.13-7.646-10.747-11.526c1.552-1.451,3.073-2.873,4.683-4.378c2.115,2.261,4.201,4.494,6.32,6.759
			C242.904,136.108,248.535,130.857,254.259,125.524z"/>
	</g>
</g>
<g>
	<path class="st1" d="M9.747,90.631c0-0.744-0.024-1.343-0.048-1.895h0.947l0.048,0.995h0.024c0.432-0.708,1.115-1.127,2.062-1.127
		c1.403,0,2.459,1.187,2.459,2.95c0,2.087-1.271,3.118-2.639,3.118c-0.768,0-1.439-0.336-1.787-0.912H10.79v3.154H9.747V90.631z
		 M10.79,92.178c0,0.156,0.024,0.3,0.048,0.432c0.192,0.732,0.828,1.235,1.583,1.235c1.116,0,1.763-0.911,1.763-2.243
		c0-1.163-0.612-2.159-1.727-2.159c-0.72,0-1.391,0.516-1.595,1.307c-0.036,0.132-0.072,0.288-0.072,0.432V92.178z"/>
	<path class="st1" d="M16.574,90.547c0-0.684-0.012-1.271-0.048-1.811h0.923l0.036,1.139h0.048c0.264-0.779,0.899-1.271,1.607-1.271
		c0.12,0,0.204,0.012,0.3,0.036v0.996c-0.108-0.024-0.216-0.036-0.359-0.036c-0.744,0-1.271,0.564-1.416,1.355
		c-0.024,0.144-0.048,0.312-0.048,0.492v3.094h-1.043V90.547z"/>
	<path class="st1" d="M25.631,91.59c0,2.146-1.487,3.082-2.89,3.082c-1.571,0-2.783-1.151-2.783-2.986
		c0-1.943,1.271-3.082,2.878-3.082C24.504,88.604,25.631,89.815,25.631,91.59z M21.026,91.65c0,1.271,0.732,2.231,1.763,2.231
		c1.007,0,1.763-0.947,1.763-2.255c0-0.983-0.492-2.23-1.739-2.23C21.566,89.396,21.026,90.547,21.026,91.65z"/>
	<path class="st1" d="M31.98,86.025v7.016c0,0.516,0.012,1.103,0.048,1.499H31.08l-0.048-1.007h-0.024
		c-0.324,0.647-1.032,1.139-1.979,1.139c-1.403,0-2.483-1.187-2.483-2.95c-0.012-1.931,1.188-3.118,2.603-3.118
		c0.888,0,1.487,0.419,1.751,0.887h0.024v-3.466H31.98z M30.924,91.099c0-0.132-0.012-0.312-0.048-0.444
		c-0.156-0.672-0.731-1.224-1.523-1.224c-1.091,0-1.739,0.959-1.739,2.243c0,1.175,0.576,2.146,1.715,2.146
		c0.708,0,1.355-0.468,1.547-1.259c0.036-0.144,0.048-0.288,0.048-0.456V91.099z"/>
	<path class="st1" d="M38.592,92.958c0,0.6,0.012,1.127,0.048,1.583h-0.936l-0.06-0.947H37.62c-0.276,0.467-0.887,1.079-1.919,1.079
		c-0.911,0-2.003-0.503-2.003-2.542v-3.394h1.056v3.214c0,1.103,0.336,1.847,1.295,1.847c0.708,0,1.199-0.492,1.391-0.959
		c0.06-0.156,0.096-0.348,0.096-0.54v-3.562h1.056V92.958z"/>
	<path class="st1" d="M44.484,94.325c-0.276,0.144-0.887,0.336-1.667,0.336c-1.751,0-2.891-1.188-2.891-2.962
		c0-1.787,1.224-3.083,3.119-3.083c0.624,0,1.175,0.156,1.463,0.3l-0.24,0.815c-0.252-0.144-0.647-0.276-1.223-0.276
		c-1.332,0-2.051,0.984-2.051,2.195c0,1.343,0.864,2.171,2.015,2.171c0.6,0,0.996-0.156,1.295-0.288L44.484,94.325z"/>
	<path class="st1" d="M46.238,91.83c0.024,1.427,0.936,2.015,1.991,2.015c0.755,0,1.211-0.132,1.607-0.3l0.18,0.756
		c-0.372,0.168-1.007,0.36-1.931,0.36c-1.787,0-2.854-1.175-2.854-2.927c0-1.751,1.032-3.13,2.723-3.13
		c1.895,0,2.399,1.667,2.399,2.734c0,0.216-0.024,0.384-0.036,0.492H46.238z M49.333,91.074c0.012-0.671-0.276-1.715-1.463-1.715
		c-1.067,0-1.535,0.983-1.619,1.715H49.333z"/>
	<path class="st1" d="M51.662,90.547c0-0.684-0.012-1.271-0.048-1.811h0.923l0.036,1.139h0.048c0.264-0.779,0.899-1.271,1.607-1.271
		c0.12,0,0.204,0.012,0.3,0.036v0.996c-0.108-0.024-0.216-0.036-0.359-0.036c-0.744,0-1.271,0.564-1.416,1.355
		c-0.024,0.144-0.048,0.312-0.048,0.492v3.094h-1.043V90.547z"/>
</g>
<g>
	<path class="st5" d="M109.305,90.631c0-0.744-0.024-1.343-0.048-1.895h0.947l0.048,0.995h0.024
		c0.432-0.708,1.115-1.127,2.062-1.127c1.403,0,2.459,1.187,2.459,2.95c0,2.087-1.271,3.118-2.639,3.118
		c-0.768,0-1.439-0.336-1.787-0.912h-0.024v3.154h-1.043V90.631z M110.349,92.178c0,0.156,0.024,0.3,0.048,0.432
		c0.192,0.732,0.828,1.235,1.583,1.235c1.116,0,1.763-0.911,1.763-2.243c0-1.163-0.612-2.159-1.727-2.159
		c-0.72,0-1.391,0.516-1.595,1.307c-0.036,0.132-0.072,0.288-0.072,0.432V92.178z"/>
	<path class="st5" d="M116.133,90.547c0-0.684-0.012-1.271-0.048-1.811h0.923l0.036,1.139h0.048
		c0.264-0.779,0.899-1.271,1.607-1.271c0.12,0,0.204,0.012,0.3,0.036v0.996c-0.108-0.024-0.216-0.036-0.359-0.036
		c-0.744,0-1.271,0.564-1.416,1.355c-0.024,0.144-0.048,0.312-0.048,0.492v3.094h-1.043V90.547z"/>
	<path class="st5" d="M125.19,91.59c0,2.146-1.487,3.082-2.89,3.082c-1.571,0-2.783-1.151-2.783-2.986
		c0-1.943,1.271-3.082,2.878-3.082C124.063,88.604,125.19,89.815,125.19,91.59z M120.584,91.65c0,1.271,0.732,2.231,1.763,2.231
		c1.007,0,1.763-0.947,1.763-2.255c0-0.983-0.492-2.23-1.739-2.23C121.125,89.396,120.584,90.547,120.584,91.65z"/>
	<path class="st5" d="M130.663,94.325c-0.276,0.144-0.887,0.336-1.667,0.336c-1.751,0-2.891-1.188-2.891-2.962
		c0-1.787,1.224-3.083,3.119-3.083c0.624,0,1.175,0.156,1.463,0.3l-0.24,0.815c-0.252-0.144-0.647-0.276-1.223-0.276
		c-1.332,0-2.051,0.984-2.051,2.195c0,1.343,0.864,2.171,2.015,2.171c0.6,0,0.996-0.156,1.295-0.288L130.663,94.325z"/>
	<path class="st5" d="M132.417,91.83c0.024,1.427,0.936,2.015,1.991,2.015c0.755,0,1.211-0.132,1.607-0.3l0.18,0.756
		c-0.372,0.168-1.007,0.36-1.931,0.36c-1.787,0-2.854-1.175-2.854-2.927c0-1.751,1.032-3.13,2.723-3.13
		c1.895,0,2.399,1.667,2.399,2.734c0,0.216-0.024,0.384-0.036,0.492H132.417z M135.511,91.074c0.012-0.671-0.276-1.715-1.463-1.715
		c-1.067,0-1.535,0.983-1.619,1.715H135.511z"/>
	<path class="st5" d="M137.697,93.461c0.312,0.204,0.864,0.42,1.392,0.42c0.768,0,1.127-0.384,1.127-0.863
		c0-0.504-0.3-0.78-1.079-1.067c-1.043-0.372-1.535-0.948-1.535-1.644c0-0.935,0.755-1.703,2.003-1.703
		c0.587,0,1.103,0.167,1.427,0.359l-0.264,0.768c-0.228-0.144-0.647-0.335-1.187-0.335c-0.624,0-0.972,0.36-0.972,0.792
		c0,0.479,0.348,0.695,1.104,0.983c1.007,0.384,1.523,0.888,1.523,1.751c0,1.02-0.792,1.739-2.171,1.739
		c-0.635,0-1.223-0.156-1.631-0.396L137.697,93.461z"/>
	<path class="st5" d="M142.449,93.461c0.312,0.204,0.864,0.42,1.392,0.42c0.768,0,1.127-0.384,1.127-0.863
		c0-0.504-0.3-0.78-1.079-1.067c-1.043-0.372-1.535-0.948-1.535-1.644c0-0.935,0.755-1.703,2.003-1.703
		c0.587,0,1.103,0.167,1.427,0.359l-0.264,0.768c-0.228-0.144-0.647-0.335-1.187-0.335c-0.624,0-0.972,0.36-0.972,0.792
		c0,0.479,0.348,0.695,1.104,0.983c1.007,0.384,1.523,0.888,1.523,1.751c0,1.02-0.792,1.739-2.171,1.739
		c-0.635,0-1.223-0.156-1.631-0.396L142.449,93.461z"/>
	<path class="st5" d="M148.52,87.105c0.012,0.36-0.252,0.648-0.671,0.648c-0.372,0-0.636-0.288-0.636-0.648
		c0-0.372,0.276-0.66,0.66-0.66C148.268,86.445,148.52,86.733,148.52,87.105z M147.345,94.541v-5.805h1.056v5.805H147.345z"/>
	<path class="st5" d="M150.153,90.307c0-0.6-0.012-1.091-0.048-1.571h0.936l0.06,0.959h0.024c0.288-0.552,0.959-1.091,1.919-1.091
		c0.803,0,2.051,0.479,2.051,2.47v3.466h-1.056v-3.346c0-0.936-0.348-1.715-1.343-1.715c-0.695,0-1.235,0.492-1.415,1.079
		c-0.048,0.132-0.072,0.312-0.072,0.492v3.49h-1.056V90.307z"/>
	<path class="st5" d="M161.814,88.736c-0.024,0.419-0.048,0.887-0.048,1.595v3.37c0,1.331-0.264,2.146-0.827,2.65
		c-0.564,0.528-1.379,0.696-2.111,0.696c-0.696,0-1.463-0.168-1.931-0.48l0.264-0.804c0.384,0.24,0.983,0.456,1.703,0.456
		c1.08,0,1.871-0.564,1.871-2.027v-0.648h-0.024c-0.324,0.54-0.948,0.972-1.847,0.972c-1.439,0-2.471-1.224-2.471-2.831
		c0-1.967,1.284-3.082,2.615-3.082c1.007,0,1.559,0.527,1.811,1.007h0.024l0.048-0.875H161.814z M160.722,91.026
		c0-0.18-0.012-0.336-0.06-0.479c-0.192-0.612-0.708-1.116-1.476-1.116c-1.007,0-1.727,0.852-1.727,2.195
		c0,1.14,0.576,2.087,1.715,2.087c0.647,0,1.235-0.408,1.463-1.079c0.06-0.18,0.083-0.384,0.083-0.564V91.026z"/>
</g>
<g>
	<path class="st7" d="M224.369,87.069v1.667h1.511v0.803h-1.511v3.13c0,0.72,0.204,1.127,0.792,1.127
		c0.276,0,0.479-0.036,0.611-0.072l0.048,0.792c-0.204,0.084-0.528,0.144-0.936,0.144c-0.492,0-0.888-0.156-1.14-0.444
		c-0.3-0.312-0.408-0.828-0.408-1.511v-3.167h-0.899v-0.803h0.899v-1.391L224.369,87.069z"/>
	<path class="st7" d="M227.069,90.547c0-0.684-0.012-1.271-0.048-1.811h0.923l0.036,1.139h0.048
		c0.264-0.779,0.899-1.271,1.607-1.271c0.12,0,0.204,0.012,0.3,0.036v0.996c-0.108-0.024-0.216-0.036-0.36-0.036
		c-0.744,0-1.271,0.564-1.416,1.355c-0.024,0.144-0.048,0.312-0.048,0.492v3.094h-1.043V90.547z"/>
	<path class="st7" d="M234.148,94.541l-0.084-0.731h-0.036c-0.324,0.456-0.947,0.863-1.775,0.863c-1.175,0-1.775-0.828-1.775-1.667
		c0-1.403,1.247-2.171,3.49-2.159v-0.12c0-0.479-0.132-1.343-1.319-1.343c-0.54,0-1.104,0.168-1.511,0.432l-0.24-0.695
		c0.48-0.312,1.175-0.516,1.907-0.516c1.775,0,2.207,1.211,2.207,2.375v2.171c0,0.503,0.024,0.995,0.096,1.391H234.148z
		 M233.992,91.578c-1.151-0.024-2.458,0.18-2.458,1.307c0,0.684,0.456,1.008,0.996,1.008c0.755,0,1.235-0.48,1.403-0.972
		c0.036-0.108,0.06-0.228,0.06-0.336V91.578z"/>
	<path class="st7" d="M236.718,90.307c0-0.6-0.012-1.091-0.048-1.571h0.936l0.06,0.959h0.024c0.288-0.552,0.959-1.091,1.919-1.091
		c0.803,0,2.051,0.479,2.051,2.47v3.466h-1.056v-3.346c0-0.936-0.348-1.715-1.344-1.715c-0.695,0-1.235,0.492-1.415,1.079
		c-0.048,0.132-0.072,0.312-0.072,0.492v3.49h-1.056V90.307z"/>
	<path class="st7" d="M243.233,93.461c0.312,0.204,0.863,0.42,1.392,0.42c0.768,0,1.127-0.384,1.127-0.863
		c0-0.504-0.3-0.78-1.079-1.067c-1.044-0.372-1.535-0.948-1.535-1.644c0-0.935,0.755-1.703,2.003-1.703
		c0.587,0,1.103,0.167,1.427,0.359l-0.264,0.768c-0.228-0.144-0.647-0.335-1.188-0.335c-0.624,0-0.972,0.36-0.972,0.792
		c0,0.479,0.348,0.695,1.104,0.983c1.008,0.384,1.523,0.888,1.523,1.751c0,1.02-0.792,1.739-2.171,1.739
		c-0.636,0-1.224-0.156-1.631-0.396L243.233,93.461z"/>
	<path class="st7" d="M248.129,90.631c0-0.744-0.023-1.343-0.048-1.895h0.947l0.048,0.995h0.024
		c0.432-0.708,1.115-1.127,2.062-1.127c1.403,0,2.459,1.187,2.459,2.95c0,2.087-1.271,3.118-2.639,3.118
		c-0.768,0-1.439-0.336-1.787-0.912h-0.023v3.154h-1.044V90.631z M249.173,92.178c0,0.156,0.023,0.3,0.048,0.432
		c0.191,0.732,0.827,1.235,1.583,1.235c1.115,0,1.763-0.911,1.763-2.243c0-1.163-0.611-2.159-1.727-2.159
		c-0.72,0-1.392,0.516-1.596,1.307c-0.035,0.132-0.071,0.288-0.071,0.432V92.178z"/>
	<path class="st7" d="M260.21,91.59c0,2.146-1.487,3.082-2.891,3.082c-1.571,0-2.782-1.151-2.782-2.986
		c0-1.943,1.271-3.082,2.878-3.082C259.083,88.604,260.21,89.815,260.21,91.59z M255.605,91.65c0,1.271,0.731,2.231,1.763,2.231
		c1.008,0,1.764-0.947,1.764-2.255c0-0.983-0.492-2.23-1.739-2.23S255.605,90.547,255.605,91.65z"/>
	<path class="st7" d="M261.545,90.547c0-0.684-0.012-1.271-0.048-1.811h0.924l0.036,1.139h0.048
		c0.264-0.779,0.899-1.271,1.606-1.271c0.12,0,0.204,0.012,0.3,0.036v0.996c-0.107-0.024-0.216-0.036-0.359-0.036
		c-0.743,0-1.271,0.564-1.415,1.355c-0.024,0.144-0.048,0.312-0.048,0.492v3.094h-1.044V90.547z"/>
	<path class="st7" d="M267.028,87.069v1.667h1.511v0.803h-1.511v3.13c0,0.72,0.203,1.127,0.791,1.127
		c0.276,0,0.479-0.036,0.611-0.072l0.049,0.792c-0.204,0.084-0.528,0.144-0.936,0.144c-0.492,0-0.888-0.156-1.14-0.444
		c-0.3-0.312-0.408-0.828-0.408-1.511v-3.167h-0.899v-0.803h0.899v-1.391L267.028,87.069z"/>
</g>
<g>
	<path class="st8" d="M328.986,80.746v7.061c0,0.519,0.012,1.11,0.048,1.509h-0.947l-0.048-1.014h-0.024
		c-0.323,0.651-1.031,1.146-1.979,1.146c-1.403,0-2.482-1.195-2.482-2.969c-0.013-1.943,1.188-3.138,2.603-3.138
		c0.888,0,1.487,0.422,1.751,0.893h0.023v-3.488H328.986z M327.931,85.852c0-0.133-0.012-0.314-0.048-0.447
		c-0.155-0.676-0.731-1.231-1.522-1.231c-1.092,0-1.739,0.965-1.739,2.257c0,1.183,0.575,2.161,1.715,2.161
		c0.708,0,1.355-0.471,1.547-1.268c0.036-0.145,0.048-0.29,0.048-0.458V85.852z"/>
	<path class="st8" d="M331.916,81.832c0.012,0.362-0.252,0.652-0.672,0.652c-0.371,0-0.636-0.29-0.636-0.652
		c0-0.374,0.276-0.664,0.66-0.664C331.664,81.169,331.916,81.458,331.916,81.832z M330.741,89.316v-5.842h1.055v5.842H330.741z"/>
	<path class="st8" d="M333.405,88.229c0.312,0.206,0.863,0.422,1.392,0.422c0.768,0,1.127-0.386,1.127-0.869
		c0-0.507-0.3-0.785-1.079-1.074c-1.044-0.375-1.535-0.954-1.535-1.654c0-0.941,0.756-1.714,2.003-1.714
		c0.588,0,1.104,0.169,1.427,0.362l-0.264,0.772c-0.228-0.145-0.647-0.338-1.188-0.338c-0.623,0-0.971,0.362-0.971,0.796
		c0,0.483,0.348,0.7,1.103,0.99c1.008,0.386,1.523,0.893,1.523,1.762c0,1.026-0.791,1.75-2.171,1.75
		c-0.636,0-1.223-0.157-1.631-0.398L333.405,88.229z"/>
	<path class="st8" d="M339.572,81.796v1.678h1.512v0.809h-1.512v3.15c0,0.724,0.204,1.134,0.792,1.134
		c0.275,0,0.479-0.036,0.611-0.072l0.048,0.797c-0.203,0.084-0.527,0.145-0.936,0.145c-0.491,0-0.887-0.157-1.139-0.446
		c-0.3-0.314-0.408-0.833-0.408-1.521v-3.187h-0.899v-0.809h0.899v-1.4L339.572,81.796z"/>
	<path class="st8" d="M342.273,85.296c0-0.688-0.013-1.28-0.049-1.823h0.924l0.036,1.146h0.048c0.264-0.784,0.899-1.279,1.607-1.279
		c0.12,0,0.204,0.012,0.3,0.036v1.002c-0.108-0.024-0.216-0.036-0.36-0.036c-0.743,0-1.271,0.567-1.415,1.364
		c-0.023,0.145-0.048,0.314-0.048,0.495v3.114h-1.043V85.296z"/>
	<path class="st8" d="M347.42,81.832c0.012,0.362-0.252,0.652-0.672,0.652c-0.371,0-0.636-0.29-0.636-0.652
		c0-0.374,0.276-0.664,0.66-0.664C347.168,81.169,347.42,81.458,347.42,81.832z M346.245,89.316v-5.842h1.055v5.842H346.245z"/>
	<path class="st8" d="M349.004,89.316c0.024-0.398,0.049-0.99,0.049-1.509v-7.061h1.043v3.669h0.024
		c0.371-0.652,1.043-1.074,1.979-1.074c1.439,0,2.459,1.207,2.446,2.981c0,2.088-1.307,3.126-2.603,3.126
		c-0.839,0-1.511-0.326-1.942-1.099h-0.036l-0.048,0.966H349.004z M350.096,86.974c0,0.132,0.024,0.265,0.048,0.386
		c0.204,0.736,0.815,1.243,1.583,1.243c1.104,0,1.764-0.905,1.764-2.245c0-1.171-0.6-2.172-1.728-2.172
		c-0.72,0-1.392,0.495-1.607,1.303c-0.023,0.121-0.06,0.266-0.06,0.435V86.974z"/>
	<path class="st8" d="M360.737,87.722c0,0.604,0.013,1.135,0.049,1.593h-0.936l-0.061-0.954h-0.023
		c-0.276,0.471-0.888,1.086-1.919,1.086c-0.912,0-2.003-0.507-2.003-2.559v-3.416h1.055v3.235c0,1.11,0.336,1.858,1.296,1.858
		c0.707,0,1.199-0.495,1.391-0.965c0.061-0.157,0.097-0.35,0.097-0.543v-3.585h1.055V87.722z"/>
	<path class="st8" d="M363.764,81.796v1.678h1.512v0.809h-1.512v3.15c0,0.724,0.204,1.134,0.792,1.134
		c0.275,0,0.479-0.036,0.611-0.072l0.048,0.797c-0.203,0.084-0.527,0.145-0.936,0.145c-0.491,0-0.887-0.157-1.139-0.446
		c-0.3-0.314-0.408-0.833-0.408-1.521v-3.187h-0.899v-0.809h0.899v-1.4L363.764,81.796z"/>
	<path class="st8" d="M367.64,81.832c0.012,0.362-0.252,0.652-0.672,0.652c-0.371,0-0.636-0.29-0.636-0.652
		c0-0.374,0.276-0.664,0.66-0.664C367.388,81.169,367.64,81.458,367.64,81.832z M366.465,89.316v-5.842h1.055v5.842H366.465z"/>
	<path class="st8" d="M374.525,86.346c0,2.161-1.487,3.102-2.891,3.102c-1.571,0-2.782-1.159-2.782-3.005
		c0-1.956,1.271-3.102,2.878-3.102C373.397,83.341,374.525,84.56,374.525,86.346z M369.92,86.407c0,1.279,0.731,2.245,1.763,2.245
		c1.008,0,1.763-0.953,1.763-2.269c0-0.99-0.491-2.245-1.738-2.245C370.459,84.138,369.92,85.296,369.92,86.407z"/>
	<path class="st8" d="M375.86,85.055c0-0.604-0.013-1.098-0.049-1.581h0.936l0.061,0.966h0.023c0.288-0.555,0.96-1.099,1.919-1.099
		c0.804,0,2.051,0.483,2.051,2.486v3.488h-1.055v-3.368c0-0.941-0.349-1.726-1.344-1.726c-0.695,0-1.235,0.495-1.415,1.086
		c-0.048,0.133-0.072,0.314-0.072,0.495v3.512h-1.055V85.055z"/>
	<path class="st8" d="M341.503,103.59c-0.276,0.145-0.888,0.338-1.668,0.338c-1.751,0-2.89-1.195-2.89-2.981
		c0-1.798,1.223-3.102,3.118-3.102c0.623,0,1.175,0.157,1.463,0.302l-0.24,0.821c-0.251-0.145-0.647-0.278-1.223-0.278
		c-1.331,0-2.051,0.99-2.051,2.209c0,1.352,0.863,2.185,2.015,2.185c0.6,0,0.995-0.157,1.295-0.29L341.503,103.59z"/>
	<path class="st8" d="M343.256,101.08c0.024,1.436,0.936,2.027,1.991,2.027c0.756,0,1.211-0.133,1.607-0.302l0.18,0.761
		c-0.372,0.169-1.008,0.362-1.931,0.362c-1.787,0-2.854-1.183-2.854-2.945s1.031-3.15,2.723-3.15c1.895,0,2.398,1.678,2.398,2.752
		c0,0.217-0.024,0.386-0.036,0.495H343.256z M346.351,100.319c0.012-0.676-0.276-1.726-1.463-1.726
		c-1.067,0-1.535,0.989-1.619,1.726H346.351z"/>
	<path class="st8" d="M348.682,99.547c0-0.604-0.013-1.098-0.049-1.581h0.936l0.061,0.966h0.023c0.288-0.555,0.96-1.099,1.919-1.099
		c0.804,0,2.051,0.483,2.051,2.486v3.488h-1.055v-3.368c0-0.941-0.348-1.726-1.344-1.726c-0.695,0-1.235,0.495-1.415,1.086
		c-0.048,0.133-0.072,0.314-0.072,0.495v3.512h-1.055V99.547z"/>
	<path class="st8" d="M356.564,96.288v1.678h1.512v0.809h-1.512v3.15c0,0.724,0.204,1.134,0.792,1.134
		c0.275,0,0.479-0.036,0.611-0.072l0.048,0.797c-0.203,0.084-0.527,0.145-0.936,0.145c-0.491,0-0.887-0.157-1.139-0.446
		c-0.3-0.314-0.408-0.833-0.408-1.521v-3.187h-0.899v-0.809h0.899v-1.4L356.564,96.288z"/>
	<path class="st8" d="M359.78,101.08c0.024,1.436,0.936,2.027,1.991,2.027c0.756,0,1.211-0.133,1.607-0.302l0.18,0.761
		c-0.372,0.169-1.008,0.362-1.931,0.362c-1.787,0-2.854-1.183-2.854-2.945s1.031-3.15,2.723-3.15c1.895,0,2.398,1.678,2.398,2.752
		c0,0.217-0.024,0.386-0.036,0.495H359.78z M362.875,100.319c0.012-0.676-0.276-1.726-1.463-1.726c-1.067,0-1.535,0.989-1.619,1.726
		H362.875z"/>
	<path class="st8" d="M365.205,99.789c0-0.688-0.013-1.28-0.049-1.823h0.924l0.036,1.146h0.048c0.264-0.784,0.899-1.279,1.607-1.279
		c0.12,0,0.204,0.012,0.3,0.036v1.002c-0.108-0.024-0.216-0.036-0.36-0.036c-0.743,0-1.271,0.567-1.415,1.364
		c-0.023,0.145-0.048,0.314-0.048,0.495v3.114h-1.043V99.789z"/>
</g>
<g>
	<path class="st3" d="M440.353,88.736l1.14,3.262c0.192,0.527,0.348,1.007,0.468,1.487h0.036c0.132-0.48,0.3-0.96,0.491-1.487
		l1.128-3.262h1.104l-2.279,5.805h-1.007l-2.207-5.805H440.353z"/>
	<path class="st3" d="M446.185,91.83c0.024,1.427,0.936,2.015,1.991,2.015c0.755,0,1.211-0.132,1.606-0.3l0.181,0.756
		c-0.372,0.168-1.008,0.36-1.932,0.36c-1.787,0-2.854-1.175-2.854-2.927c0-1.751,1.032-3.13,2.723-3.13
		c1.896,0,2.399,1.667,2.399,2.734c0,0.216-0.024,0.384-0.036,0.492H446.185z M449.279,91.074c0.012-0.671-0.276-1.715-1.464-1.715
		c-1.067,0-1.535,0.983-1.619,1.715H449.279z"/>
	<path class="st3" d="M451.609,90.307c0-0.6-0.013-1.091-0.048-1.571h0.936l0.06,0.959h0.024c0.287-0.552,0.959-1.091,1.919-1.091
		c0.803,0,2.051,0.479,2.051,2.47v3.466h-1.056v-3.346c0-0.936-0.348-1.715-1.344-1.715c-0.695,0-1.235,0.492-1.415,1.079
		c-0.048,0.132-0.071,0.312-0.071,0.492v3.49h-1.056V90.307z"/>
	<path class="st3" d="M463.282,86.025v7.016c0,0.516,0.012,1.103,0.048,1.499h-0.947l-0.048-1.007h-0.024
		c-0.324,0.647-1.031,1.139-1.979,1.139c-1.403,0-2.483-1.187-2.483-2.95c-0.012-1.931,1.188-3.118,2.603-3.118
		c0.888,0,1.487,0.419,1.752,0.887h0.023v-3.466H463.282z M462.227,91.099c0-0.132-0.012-0.312-0.048-0.444
		c-0.156-0.672-0.731-1.224-1.523-1.224c-1.091,0-1.739,0.959-1.739,2.243c0,1.175,0.576,2.146,1.716,2.146
		c0.707,0,1.354-0.468,1.547-1.259c0.036-0.144,0.048-0.288,0.048-0.456V91.099z"/>
	<path class="st3" d="M470.29,91.59c0,2.146-1.487,3.082-2.891,3.082c-1.571,0-2.782-1.151-2.782-2.986
		c0-1.943,1.271-3.082,2.878-3.082C469.163,88.604,470.29,89.815,470.29,91.59z M465.685,91.65c0,1.271,0.731,2.231,1.763,2.231
		c1.008,0,1.764-0.947,1.764-2.255c0-0.983-0.492-2.23-1.739-2.23S465.685,90.547,465.685,91.65z"/>
	<path class="st3" d="M471.625,90.547c0-0.684-0.013-1.271-0.048-1.811h0.923l0.036,1.139h0.048
		c0.264-0.779,0.899-1.271,1.607-1.271c0.12,0,0.204,0.012,0.3,0.036v0.996c-0.108-0.024-0.216-0.036-0.359-0.036
		c-0.744,0-1.271,0.564-1.416,1.355c-0.023,0.144-0.048,0.312-0.048,0.492v3.094h-1.043V90.547z"/>
</g>
<g>
</g>
<g id="_x32__1_">
	<path class="st9" d="M269.665,24.513l-2.148-0.811c-0.711-0.148-1.282-0.675-1.49-1.372c-0.468-1.567-1.092-3.067-1.855-4.481
		c-0.344-0.641-0.315-1.418,0.084-2.027l0.946-2.089c0.429-0.95,0.226-2.068-0.512-2.806l-3.327-3.328
		c-0.738-0.737-1.854-0.94-2.804-0.512l-2.087,0.945c-0.609,0.398-1.386,0.429-2.027,0.083c-1.415-0.765-2.917-1.39-4.485-1.86
		c-0.696-0.209-1.223-0.78-1.372-1.491l-0.807-2.142C247.412,1.647,246.479,1,245.436,1h-2.565h-0.141h-2.425
		c-1.043,0-1.976,0.647-2.345,1.622l-0.807,2.142c-0.149,0.711-0.676,1.282-1.372,1.491c-1.569,0.469-3.07,1.095-4.485,1.86
		c-0.641,0.346-1.418,0.315-2.027-0.083l-2.087-0.945c-0.95-0.429-2.066-0.225-2.804,0.512l-3.327,3.328
		c-0.738,0.738-0.94,1.855-0.512,2.806l0.946,2.089c0.399,0.609,0.429,1.386,0.084,2.027c-0.763,1.414-1.387,2.914-1.855,4.481
		c-0.208,0.697-0.779,1.224-1.49,1.372l-2.148,0.811c-0.975,0.367-1.622,1.302-1.622,2.345l0.001,4.786
		c0,0.994,0.616,1.885,1.546,2.235l2.228,0.839c0.711,0.148,1.282,0.675,1.491,1.37c0.468,1.564,1.094,3.061,1.855,4.474
		c0.346,0.64,0.316,1.417-0.083,2.027l-0.983,2.17c-0.41,0.907-0.216,1.972,0.486,2.675l3.385,3.383
		c0.738,0.738,1.855,0.94,2.806,0.51l2.1-0.952c0.609-0.399,1.386-0.429,2.027-0.084c1.41,0.76,2.905,1.383,4.468,1.851
		c0.696,0.208,1.223,0.779,1.372,1.49l0.812,2.159c0.367,0.976,1.302,1.622,2.345,1.622h2.418h0.141h2.558
		c1.043,0,1.978-0.647,2.345-1.622l0.812-2.159c0.149-0.711,0.676-1.282,1.372-1.49c1.563-0.468,3.059-1.091,4.468-1.851
		c0.641-0.344,1.418-0.315,2.027,0.084l2.1,0.952c0.95,0.43,2.068,0.228,2.806-0.51l3.385-3.383
		c0.703-0.703,0.897-1.768,0.486-2.675l-0.983-2.17c-0.399-0.61-0.429-1.387-0.083-2.027c0.762-1.413,1.387-2.91,1.855-4.474
		c0.209-0.696,0.78-1.223,1.491-1.37l2.228-0.839c0.93-0.35,1.546-1.241,1.546-2.235l0.001-4.786
		C271.287,25.815,270.64,24.88,269.665,24.513z"/>
	<circle class="st9" cx="242.871" cy="29.207" r="18.634"/>
	<ellipse class="st9" cx="242.871" cy="29.207" rx="10.575" ry="18.634"/>
	<line class="st9" x1="242.871" y1="10.725" x2="242.871" y2="47.69"/>
	<line class="st9" x1="225.769" y1="21.8" x2="259.961" y2="21.8"/>
	<line class="st9" x1="225.769" y1="35.876" x2="259.961" y2="35.876"/>
</g>
<g id="_x37__1_">
	<line class="st10" x1="440.665" y1="18.594" x2="440.637" y2="18.594"/>
	<polyline class="st10" points="433.861,24.836 433.861,49.05 479.881,49.05 479.881,24.836 	"/>
	<line class="st10" x1="473.08" y1="18.594" x2="473.077" y2="18.594"/>
	<rect x="431.611" y="49.05" class="st10" width="50.522" height="5.028"/>
	<rect x="451.189" y="30.998" class="st10" width="22.861" height="17.961"/>
	<rect x="439.693" y="30.998" class="st10" width="11.496" height="17.961"/>
	<path class="st10" d="M478.681,24.982L478.681,24.982c-3.011,0-5.453-2.604-5.453-5.817l-3.926-14.828h5.836
		c1.472,0,2.786,0.982,3.289,2.458l5.12,10.655c1.21,3.55-1.141,7.401-4.68,7.528C478.807,24.98,478.744,24.982,478.681,24.982z"/>
	<path class="st10" d="M467.776,24.982L467.776,24.982c-3.011,0-5.453-2.604-5.453-5.817l-1.309-14.828h8.288l3.685,13.649
		c0.601,2.936-0.987,5.932-3.693,6.767C468.813,24.902,468.303,24.982,467.776,24.982z"/>
	<path class="st10" d="M456.871,24.982L456.871,24.982c-3.011,0-5.453-2.604-5.453-5.817l1.309-14.828h8.288l1.309,14.828
		C462.324,22.377,459.883,24.982,456.871,24.982z"/>
	<path class="st10" d="M445.966,24.982L445.966,24.982c-3.011,0-5.453-2.604-5.453-5.817l3.926-14.828h8.288l-1.309,14.828
		C451.419,22.377,448.978,24.982,445.966,24.982z"/>
	<path class="st10" d="M435.061,24.982L435.061,24.982c-0.063,0-0.125-0.001-0.187-0.003c-3.539-0.128-5.891-3.978-4.68-7.528
		l5.12-10.655c0.503-1.476,1.818-2.458,3.289-2.458h5.836l-3.83,14.358c-0.058,0.286-0.09,0.576-0.109,0.868
		C440.309,22.59,437.947,24.982,435.061,24.982z"/>
	<line class="st10" x1="457.465" y1="35.348" x2="455.52" y2="37.293"/>
	<line class="st10" x1="460.95" y1="36.263" x2="456.55" y2="40.663"/>
	<line class="st10" x1="443.49" y1="41.027" x2="443.49" y2="42.656"/>
</g>
<g id="_x38__1_">
	<line class="st11" x1="5.388" y1="38.989" x2="0.381" y2="41.053"/>
	<line class="st11" x1="57.868" y1="17.361" x2="52.859" y2="19.425"/>
	<line class="st11" x1="19.258" y1="52.907" x2="17.176" y2="57.908"/>
	<line class="st11" x1="41.073" y1="0.506" x2="38.991" y2="5.507"/>
	<line class="st11" x1="19.343" y1="5.472" x2="17.279" y2="0.464"/>
	<line class="st11" x1="40.97" y1="57.95" x2="38.906" y2="52.943"/>
	<line class="st11" x1="57.825" y1="41.155" x2="52.825" y2="39.073"/>
	<line class="st11" x1="5.424" y1="19.341" x2="0.424" y2="17.259"/>
	<circle class="st11" cx="29.125" cy="29.207" r="18.647"/>
</g>
<linearGradient id="SVGID_1_" gradientUnits="userSpaceOnUse" x1="274.7048" y1="138.5404" x2="322.7048" y2="138.5404">
	<stop  offset="0.0022" style="stop-color:#4EC9F5"/>
	<stop  offset="0.107" style="stop-color:#58C2EA"/>
	<stop  offset="0.2968" style="stop-color:#6BB5D3"/>
	<stop  offset="0.55" style="stop-color:#749BAD"/>
	<stop  offset="0.8537" style="stop-color:#687279"/>
	<stop  offset="1" style="stop-color:#58595B"/>
</linearGradient>
<line class="st12" x1="274.705" y1="138.54" x2="322.705" y2="138.54"/>
<linearGradient id="SVGID_2_" gradientUnits="userSpaceOnUse" x1="386.0381" y1="138.8738" x2="434.0381" y2="138.8738">
	<stop  offset="4.006410e-04" style="stop-color:#6D6E71"/>
	<stop  offset="0.045" style="stop-color:#6D6D77"/>
	<stop  offset="0.1503" style="stop-color:#696783"/>
	<stop  offset="0.2597" style="stop-color:#615D89"/>
	<stop  offset="0.371" style="stop-color:#57528D"/>
	<stop  offset="0.4847" style="stop-color:#4B478F"/>
	<stop  offset="0.6015" style="stop-color:#3F3D90"/>
	<stop  offset="0.7227" style="stop-color:#363690"/>
	<stop  offset="0.8512" style="stop-color:#303191"/>
	<stop  offset="0.9991" style="stop-color:#2E3192"/>
</linearGradient>
<line class="st13" x1="386.038" y1="138.874" x2="434.038" y2="138.874"/>
<linearGradient id="SVGID_3_" gradientUnits="userSpaceOnUse" x1="56.0381" y1="138.5404" x2="104.0381" y2="138.5404">
	<stop  offset="4.006410e-04" style="stop-color:#006838"/>
	<stop  offset="0.1294" style="stop-color:#316937"/>
	<stop  offset="0.4002" style="stop-color:#6D6B35"/>
	<stop  offset="0.7868" style="stop-color:#BD662E"/>
	<stop  offset="0.9987" style="stop-color:#F15A29"/>
</linearGradient>
<line class="st14" x1="56.038" y1="138.54" x2="104.038" y2="138.54"/>
<linearGradient id="SVGID_4_" gradientUnits="userSpaceOnUse" x1="161.3714" y1="139.2071" x2="209.3714" y2="139.2071">
	<stop  offset="4.006410e-04" style="stop-color:#F15A29"/>
	<stop  offset="0.085" style="stop-color:#E66A3B"/>
	<stop  offset="0.4241" style="stop-color:#BC9781"/>
	<stop  offset="0.6994" style="stop-color:#92B3BA"/>
	<stop  offset="0.8974" style="stop-color:#69C1E1"/>
	<stop  offset="0.9987" style="stop-color:#4EC9F5"/>
</linearGradient>
<line class="st15" x1="161.371" y1="139.207" x2="209.371" y2="139.207"/>
<g>
	<g>
		<path class="st8" d="M354.205,115.295c12.426,0,22.5,10.074,22.5,22.5c0,12.426-10.074,22.5-22.5,22.5s-22.5-10.074-22.5-22.5
			C331.705,125.369,341.778,115.295,354.205,115.295 M354.205,114.295c-12.958,0-23.5,10.542-23.5,23.5s10.542,23.5,23.5,23.5
			s23.5-10.542,23.5-23.5S367.163,114.295,354.205,114.295L354.205,114.295z"/>
	</g>
	<g>
		<g>
			<path class="st8" d="M366.006,125.279c1.498,1.605,2.927,3.135,4.444,4.759c-7.247,6.76-14.467,13.49-21.743,20.274
				c-3.589-3.848-7.13-7.646-10.747-11.526c1.552-1.451,3.073-2.873,4.683-4.378c2.115,2.261,4.203,4.494,6.32,6.759
				C354.651,135.863,360.284,130.612,366.006,125.279z"/>
		</g>
	</g>
</g>
<g id="_x36__2_">
	<polyline class="st16" points="347.234,26.069 318.343,35.985 346.049,49.532 386.525,35.641 360.046,22.693 	"/>
	<polyline class="st16" points="318.218,40.137 345.924,53.685 386.399,39.793 	"/>
	<g>
		<path class="st8" d="M369.764,33.21c3.714,0,12.11,2.886,8.368,4.279c-0.545,0.203-5.346,1.856-8.406,2.906
			c-0.135,0.046-0.243,0.068-0.331,0.068c-0.422,0-0.361-0.51-0.48-1.26c-0.072-0.452-0.37-0.836-0.793-1.011l-3.657-1.512
			c-1.384-1.174,1.792-3.172,4.53-3.417C369.219,33.227,369.477,33.21,369.764,33.21 M369.764,31.21
			c-0.375,0-0.708,0.022-1.017,0.068c-2.273,0.224-5.743,1.563-6.481,3.888c-0.356,1.121-0.017,2.257,0.905,3.039l0.24,0.203
			l0.29,0.12l3.286,1.359c0.256,2.241,1.618,2.576,2.408,2.576c0.313,0,0.634-0.058,0.98-0.177c0.314-0.108,7.707-2.645,8.455-2.924
			c2.411-0.897,2.295-2.656,2.202-3.173C380.379,32.566,371.524,31.21,369.764,31.21L369.764,31.21z"/>
	</g>
	<path class="st16" d="M369.223,27.181c0.156,0.09,0.135,0.246-0.01,0.445c-0.436,0.598-1.996,1.588-3.304,2.38
		c-1.339,0.811-2.831,1.334-4.384,1.533l-1.97,0.252c-1.863,0.387-3.28-0.662-4.143-1.858"/>
	<g>
		<path class="st8" d="M335.364,36.239c0.387,0,0.774,0.052,1.151,0.16c0.665,0.189,1.801,0.833,2.495,1.248
			c0.318,0.19,0.391,0.618,0.157,0.904l-0.952,1.16c-0.381,0.464,0.136,3.1,0.045,3.693c-0.134,0.879,0.933,1.456,0.84,1.491
			c-0.093-0.046-12.572-6.016-12.656-6.062c-1.522-0.737,4.808-1.462,7.508-2.362C334.41,36.318,334.887,36.239,335.364,36.239
			 M335.364,34.239L335.364,34.239c-0.691,0-1.378,0.113-2.044,0.335c-0.864,0.288-2.244,0.576-3.579,0.854
			c-3.633,0.758-5.291,1.104-5.514,2.913c-0.092,0.748,0.213,1.743,1.345,2.292l0-0.001c0.291,0.143,1.625,0.782,8.896,4.263
			c2.041,0.977,3.654,1.749,3.755,1.798l0.765,0.371l0.803-0.292l1.075-0.396l0.208-1.133c0.094-0.522,0.033-1.291-0.787-1.994
			c-0.005-0.004-0.01-0.009-0.016-0.014c0.001-0.345-0.037-0.757-0.094-1.324c-0.035-0.353-0.094-0.939-0.104-1.312l0.64-0.781
			c0.481-0.587,0.683-1.353,0.553-2.101c-0.13-0.747-0.578-1.399-1.23-1.789c-1.943-1.161-2.719-1.382-2.974-1.455
			C336.513,34.318,335.941,34.239,335.364,34.239L335.364,34.239z"/>
	</g>
	<g>
		<path class="st8" d="M353.541,37.975c0.557,0,1.138,0.058,1.549,0.168l2.487,0.662c0.27,0.072,0.556,0.179,0.821,0.301
			c0.411,0.19,0.317,1.206,0.057,1.994c-0.26,0.789-0.19,1.649,0.165,2.399l0.324,0.552c-0.114,0.042-6.335,2.022-8,2.594
			l-1.956-2.923c-0.354-0.54-0.879-0.945-1.49-1.154c-0.715-0.244-1.485-0.559-1.445-0.779l0.368-2.034
			c0.06-0.331,0.706-0.711,1.437-0.845l4.657-0.856C352.808,38.001,353.169,37.975,353.541,37.975 M353.541,35.975L353.541,35.975
			c-0.353,0-0.881,0.02-1.387,0.113l-4.657,0.856c-1.3,0.239-2.782,1.009-3.044,2.456l-0.368,2.034
			c-0.355,1.96,1.753,2.681,2.766,3.027c0.191,0.065,0.356,0.192,0.464,0.358l1.966,2.939l0.856,1.279l1.456-0.5
			c1.192-0.409,4.792-1.563,6.725-2.183c0.767-0.246,1.282-0.413,1.315-0.425l2.249-0.825l-1.214-2.065l-0.269-0.457
			c-0.116-0.281-0.133-0.589-0.045-0.855c0.69-2.097,0.262-3.796-1.117-4.435c-0.378-0.175-0.775-0.32-1.146-0.419l-2.487-0.662
			C354.837,36.005,353.982,35.975,353.541,35.975L353.541,35.975z"/>
	</g>
	<path class="st16" d="M349.166,30.434c-3.23,0.975-3.764,0.16-6.912,1.73s-7.124-1.97-7.124-1.97"/>
	<g>
		<path class="st8" d="M352.434,4.73c5.328,0,9.648,4.32,9.648,9.648c0,5.328-9.648,18.866-9.648,18.866s-9.648-13.537-9.648-18.866
			C342.786,9.049,347.106,4.73,352.434,4.73 M352.434,2.73c-6.423,0-11.648,5.225-11.648,11.648c0,2.611,1.67,6.685,5.106,12.454
			c2.426,4.074,4.813,7.431,4.914,7.572l1.629,2.285l1.629-2.285c0.1-0.141,2.488-3.498,4.914-7.572
			c3.436-5.769,5.106-9.843,5.106-12.454C364.082,7.955,358.857,2.73,352.434,2.73L352.434,2.73z"/>
	</g>
	<g>
		<path class="st8" d="M352.434,9.141c2.892,0,5.237,2.345,5.237,5.237c0,2.892-2.345,5.237-5.237,5.237
			c-2.892,0-5.237-2.345-5.237-5.237C347.197,11.486,349.542,9.141,352.434,9.141 M352.434,7.141c-3.99,0-7.237,3.246-7.237,7.237
			s3.246,7.237,7.237,7.237s7.237-3.246,7.237-7.237S356.425,7.141,352.434,7.141L352.434,7.141z"/>
	</g>
</g>
<g id="_x31_0_1_">
	<path class="st17" d="M128.098,2.801c1.269-1.047,2.635-1.617,4.059-1.617c6.681,0,12.097,12.546,12.097,28.023
		s-5.416,28.023-12.097,28.023S120.06,44.684,120.06,29.207c0-9.021,1.84-17.047,4.699-22.172"/>
	<path class="st17" d="M113.269,46.45c-2.509-0.454-4.392-1.52-5.38-3.231c-3.34-5.786,4.817-16.749,18.22-24.488
		s26.976-9.321,30.317-3.535s-4.817,16.749-18.22,24.488c-6.998,4.04-14.043,6.403-19.653,6.914"/>
	<circle class="st17" cx="132.157" cy="29.207" r="3.985"/>
	<circle class="st17" cx="126.185" cy="4.672" r="2.596"/>
	<circle class="st17" cx="115.861" cy="46.47" r="2.596"/>
	<circle class="st17" cx="156.005" cy="36.514" r="2.596"/>
	<path class="st17" d="M155.098,33.952c-2.996-5.055-9.045-10.691-16.892-15.221c-13.403-7.738-26.976-9.321-30.317-3.535
		c-3.34,5.786,4.817,16.749,18.22,24.488s26.976,9.321,30.317,3.535c0.7-1.213,0.895-2.654,0.642-4.245"/>
</g>
</svg>